<svg version="1.2" baseProfile="tiny-ps" xmlns="http://www.w3.org/2000/svg" viewBox="0 0 512 512" width="30" height="30">
	<title>free-icon-email-4697976-svg</title>
	<style>
		tspan { white-space:pre }
		.shp0 { fill: #ffb632 } 
		.shp1 { fill: #ffd33a } 
		.shp2 { fill: #000000 } 
	</style>
	<path id="Layer" class="shp0" d="M24 128C24 110.33 38.33 96 56 96L456 96C473.67 96 488 110.33 488 128L488 384C488 401.67 473.67 416 456 416L56 416C38.33 416 24 401.67 24 384L24 128Z" />
	<path id="Layer" class="shp1" d="M488 128L272.18 254.51C269.74 255.94 267.12 257.04 264.38 257.79C261.65 258.53 258.83 258.91 256 258.91C253.17 258.91 250.35 258.53 247.62 257.79C244.88 257.04 242.26 255.94 239.82 254.51L24 128C24 123.8 24.83 119.64 26.44 115.75C28.04 111.87 30.4 108.34 33.37 105.37C36.34 102.4 39.87 100.04 43.75 98.44C47.64 96.83 51.8 96 56 96L456 96C460.2 96 464.36 96.83 468.25 98.44C472.13 100.04 475.66 102.4 478.63 105.37C481.6 108.34 483.96 111.87 485.56 115.75C487.17 119.64 488 123.8 488 128Z" />
	<path id="Layer" fill-rule="evenodd" class="shp2" d="M56 424C50.75 423.99 45.55 422.96 40.7 420.94C35.85 418.93 31.44 415.98 27.73 412.27C24.02 408.56 21.07 404.15 19.06 399.3C17.04 394.45 16.01 389.25 16 384L16 128C16.01 122.75 17.04 117.55 19.06 112.7C21.07 107.85 24.02 103.44 27.73 99.73C31.44 96.02 35.85 93.07 40.7 91.06C45.55 89.04 50.75 88.01 56 88L456 88C461.25 88.01 466.45 89.04 471.3 91.06C476.15 93.07 480.56 96.02 484.27 99.73C487.98 103.44 490.93 107.85 492.94 112.7C494.96 117.55 495.99 122.75 496 128L496 384C495.99 389.25 494.96 394.45 492.94 399.3C490.93 404.15 487.98 408.56 484.27 412.27C480.56 415.98 476.15 418.93 471.3 420.94C466.45 422.96 461.25 423.99 456 424L56 424ZM456 408C459.15 408 462.27 407.37 465.18 406.17C468.09 404.96 470.73 403.19 472.96 400.96C475.19 398.73 476.96 396.09 478.17 393.18C479.37 390.27 480 387.15 480 384L480 141.96L276.23 261.41C273.17 263.2 269.9 264.58 266.48 265.51C263.06 266.43 259.54 266.9 256 266.9C252.46 266.9 248.94 266.43 245.52 265.51C242.1 264.58 238.83 263.2 235.77 261.41L32 141.96L32 384C32 387.15 32.63 390.27 33.83 393.18C35.04 396.09 36.81 398.73 39.04 400.96C41.27 403.19 43.91 404.96 46.82 406.17C49.73 407.37 52.85 408 56 408L456 408ZM56 104C53.22 104 50.46 104.49 47.84 105.44C45.22 106.39 42.79 107.78 40.65 109.57C38.51 111.35 36.7 113.48 35.29 115.89C33.89 118.29 32.91 120.92 32.4 123.65L243.86 247.61C245.7 248.68 247.66 249.51 249.71 250.07C251.76 250.62 253.88 250.9 256 250.9C258.12 250.9 260.24 250.62 262.29 250.07C264.34 249.51 266.3 248.68 268.14 247.61L479.6 123.65C479.09 120.92 478.11 118.29 476.71 115.89C475.3 113.48 473.49 111.35 471.35 109.57C469.21 107.78 466.78 106.39 464.16 105.44C461.54 104.49 458.78 104 456 104L56 104Z" />
</svg>