<svg version="1.2" baseProfile="tiny-ps" xmlns="http://www.w3.org/2000/svg" viewBox="0 0 456 456" width="30" height="30">
	<title>linkedin (1)-svg</title>
	<style>
		tspan { white-space:pre }
		.shp0 { fill: #0084b1 } 
		.shp1 { fill: #ffffff } 
	</style>
	<g id="Layer">
		<path id="Layer" class="shp0" d="M0 0L455.73 0L455.73 455.73L0 455.73L0 0Z" />
		<g id="Layer">
			<path id="Layer" class="shp1" d="M107.25 69.22C128.13 69.23 145.34 86.47 145.3 107.45C145.25 129.41 127.02 145.97 107 145.49C86.69 145.9 68.84 128.94 68.85 107.3C68.85 86.32 86.13 69.2 107.25 69.22Z" />
			<path id="Layer" class="shp1" d="M129.43 386.47L84.71 386.47C78.91 386.47 74.2 381.77 74.2 375.96L74.2 185.18C74.2 179.38 78.91 174.67 84.71 174.67L129.43 174.67C135.23 174.67 139.94 179.38 139.94 185.18L139.94 375.96C139.94 381.77 135.24 386.47 129.43 386.47Z" />
			<path id="Layer" class="shp1" d="M386.88 241.68C386.88 201.69 354.46 169.26 314.46 169.26L302.99 169.26C281.11 169.26 261.78 180.18 250.15 196.87C248.88 198.69 247.71 200.58 246.63 202.53C246.26 202.47 246.04 202.44 246.03 202.45L246.03 179.03C246.03 176.62 244.08 174.67 241.67 174.67L185.88 174.67C183.47 174.67 181.51 176.62 181.51 179.03L181.51 382.11C181.51 384.52 183.46 386.47 185.87 386.47L242.88 386.49C245.29 386.49 247.25 384.53 247.25 382.12L247.25 264.8C247.25 244.52 263.42 227.68 283.7 227.45C294.05 227.34 303.44 231.48 310.2 238.25C316.88 244.92 321 254.15 321 264.33L321 382.14C321 384.55 322.96 386.5 325.37 386.5L382.52 386.52C384.93 386.52 386.88 384.56 386.88 382.15L386.88 241.68L386.88 241.68Z" />
		</g>
	</g>
	<g id="Layer">
	</g>
	<g id="Layer">
	</g>
	<g id="Layer">
	</g>
	<g id="Layer">
	</g>
	<g id="Layer">
	</g>
	<g id="Layer">
	</g>
	<g id="Layer">
	</g>
	<g id="Layer">
	</g>
	<g id="Layer">
	</g>
	<g id="Layer">
	</g>
	<g id="Layer">
	</g>
	<g id="Layer">
	</g>
	<g id="Layer">
	</g>
	<g id="Layer">
	</g>
	<g id="Layer">
	</g>
</svg>