<svg version="1.2" baseProfile="tiny-ps" xmlns="http://www.w3.org/2000/svg" viewBox="0 0 513 513" width="30" height="30">
	<title>free-icon-maps-and-flags-252106-svg</title>
	<style>
		tspan { white-space:pre }
		.shp0 { fill: #ee3840 } 
		.shp1 { fill: #ffe1d6 } 
		.shp2 { fill: #11113f } 
	</style>
	<path id="Layer" class="shp0" d="M445.84 201.42C445.84 353.44 274.23 494.22 274.23 494.22C264.21 502.45 247.8 502.45 237.77 494.22C237.77 494.22 66.16 353.44 66.16 201.42C66.16 96.58 151.16 11.58 256 11.58C360.85 11.58 445.84 96.58 445.84 201.42Z" />
	<path id="Layer" class="shp1" d="M256 296.93C203.34 296.93 160.49 254.09 160.49 201.42C160.49 148.76 203.34 105.91 256 105.91C308.66 105.91 351.51 148.76 351.51 201.42C351.51 254.09 308.66 296.93 256 296.93Z" />
	<g id="Layer">
		<path id="Layer" fill-rule="evenodd" class="shp2" d="M457.43 201.42C457.43 237.8 448.04 276.41 429.53 316.19C414.92 347.6 394.59 379.84 369.12 412.02C325.94 466.56 283.37 501.71 281.58 503.18C274.41 509.06 265.21 512 256 512C246.8 512 237.59 509.06 230.42 503.18C228.63 501.71 186.06 466.56 142.88 412.02C117.41 379.84 97.09 347.6 82.47 316.19C63.96 276.41 54.58 237.8 54.58 201.42C54.58 90.36 144.94 0 256 0C367.06 0 457.42 90.36 457.43 201.42ZM434.26 201.42C434.26 103.13 354.29 23.17 256 23.17C157.71 23.17 77.74 103.13 77.74 201.42C77.74 276.48 122.89 349.35 160.76 397.27C202.4 449.96 244.7 484.92 245.12 485.27C250.91 490.02 261.09 490.02 266.89 485.26C267.31 484.92 309.6 449.96 351.25 397.27C389.12 349.35 434.26 276.48 434.26 201.42Z" />
		<path id="Layer" fill-rule="evenodd" class="shp2" d="M363.09 201.43C363.09 260.48 315.05 308.52 256 308.52C196.95 308.52 148.91 260.48 148.91 201.43C148.91 142.37 196.95 94.33 256 94.33C315.05 94.33 363.09 142.37 363.09 201.43ZM339.93 201.42C339.93 155.15 302.28 117.5 256 117.5C209.72 117.5 172.07 155.15 172.07 201.42C172.07 247.7 209.72 285.35 256 285.35C302.28 285.35 339.93 247.7 339.93 201.42Z" />
	</g>
</svg>