<svg version="1.2" baseProfile="tiny-ps" xmlns="http://www.w3.org/2000/svg" viewBox="0 0 513 513" width="30" height="30">
	<title>free-icon-phone-call-455907-svg</title>
	<style>
		tspan { white-space:pre }
		.shp0 { fill: #f4f4f4 } 
		.shp1 { fill: #ffffff } 
		.shp2 { fill: #388e3c } 
		.shp3 { fill: #4caf50 } 
		.shp4 { fill: #000000 } 
	</style>
	<path id="Layer" class="shp0" d="M430.99 430.94C334.38 527.61 177.69 527.65 81.02 431.04C-15.66 334.42 -15.7 177.74 80.91 81.07C177.53 -15.61 334.22 -15.65 430.88 80.97C430.92 81 430.95 81.03 430.99 81.07C527.6 177.27 527.93 333.58 431.73 430.19C431.48 430.44 431.23 430.69 430.99 430.94Z" />
	<path id="Layer" class="shp1" d="M388.32 430.94C347.17 472.16 292.75 497.5 234.72 502.44C98.57 490.55 -2.17 370.54 9.73 234.39C20.18 114.72 115.06 19.84 234.72 9.39C370.88 21.19 471.7 141.14 459.9 277.3C454.87 335.34 429.52 389.75 388.32 430.94Z" />
	<path id="Layer" class="shp2" d="M393.69 362.41L380.72 375.47C371.08 385.07 359.12 392.01 345.99 395.61C333.64 399.02 320.62 399.2 308.19 396.12C283.95 389.68 260.91 379.39 239.92 365.66C220.63 353.4 202.72 339.1 186.5 322.99C171.65 308.13 158.28 291.88 146.57 274.43C133.77 255.52 123.63 234.93 116.44 213.25C107.62 185.61 114.96 155.35 135.47 134.83L150.49 119.47C157.99 111.91 170.2 111.85 177.77 119.35C177.81 119.39 177.84 119.43 177.88 119.47L225.84 167.43C233.4 174.93 233.46 187.14 225.96 194.7C225.92 194.74 225.88 194.78 225.84 194.82L197.68 222.98C192.81 228.04 192.2 235.83 196.23 241.58C206.16 255.19 217.15 268 229.08 279.9C242.38 293.24 256.83 305.38 272.26 316.16C273.14 316.78 274.09 317.29 275.08 317.7C280.52 319.97 286.79 318.72 290.95 314.54L312.45 293.04L318.43 287.06C325.93 279.5 338.14 279.44 345.7 286.95C345.74 286.99 345.78 287.02 345.82 287.06L393.78 335.02C401.32 342.54 401.33 354.75 393.81 362.3C393.78 362.34 393.74 362.37 393.69 362.41Z" />
	<path id="Layer" class="shp3" d="M369.71 373.68L356.74 386.65C353.42 389.81 349.82 392.66 345.99 395.18C333.64 398.59 320.62 398.77 308.19 395.69C283.95 389.25 260.91 378.97 239.92 365.23C220.63 352.98 202.72 338.67 186.5 322.56C171.65 307.71 158.27 291.45 146.57 274.01C133.77 255.09 123.63 234.5 116.44 212.82C107.62 185.18 114.96 154.92 135.47 134.4L144.6 125.27C148.22 126.06 151.54 127.86 154.16 130.48L202.12 178.43C209.64 186.02 209.64 198.24 202.12 205.82L173.87 233.98C168.8 239.04 168.18 247.07 172.42 252.84C182.19 266.44 193 279.25 204.76 291.16C218.08 304.5 232.56 316.64 248.03 327.43C253.8 331.44 261.63 330.76 266.63 325.81L274.74 317.7L294.11 298.24C298.84 293.57 305.62 291.61 312.11 293.04C315.69 293.87 318.96 295.67 321.58 298.24L369.46 346.2C377.11 353.73 377.23 366.01 369.71 373.68Z" />
	<path id="Layer" fill-rule="evenodd" class="shp4" d="M255.97 512C114.59 511.99 -0.02 397.36 0 255.97C0.02 114.58 114.64 -0.01 256.03 0C323.89 0.01 388.97 26.96 436.97 74.93C536.97 174.87 537.03 336.96 437.09 436.96C389.05 485.02 323.9 512.01 255.97 512ZM255.97 17.07C124.01 17.08 17.04 124.06 17.05 256.02C17.07 387.98 124.04 494.94 256 494.94C387.96 494.93 494.93 387.94 494.92 255.99C494.91 192.62 469.73 131.85 424.93 87.04C380.21 42.09 319.38 16.9 255.97 17.07Z" />
	<path id="Layer" fill-rule="evenodd" class="shp4" d="M325.94 406.79C319.27 406.8 312.62 405.99 306.14 404.4C280.94 397.72 256.97 387.07 235.14 372.82C215.29 360.12 196.89 345.26 180.28 328.54C165 313.33 151.28 296.63 139.32 278.7C126.03 259.14 115.52 237.83 108.08 215.38C97.98 184.6 106.17 150.75 129.25 128L144.44 112.81C155.32 101.9 172.99 101.88 183.89 112.76C183.91 112.78 183.93 112.8 183.94 112.81L231.9 160.77C242.82 171.65 242.83 189.32 231.95 200.23C231.94 200.25 231.92 200.26 231.9 200.28L203.74 228.44C201.65 230.52 201.39 233.83 203.14 236.21C212.79 249.45 223.46 261.92 235.06 273.5C248.01 286.49 262.09 298.31 277.13 308.82C279.53 310.51 282.81 310.22 284.89 308.14L312.37 280.66C323.42 270.1 340.83 270.1 351.88 280.66L399.84 328.62C410.75 339.5 410.77 357.17 399.89 368.08C399.87 368.1 399.85 368.11 399.84 368.13L386.7 381.44C370.59 397.58 348.75 406.69 325.94 406.79ZM163.81 122.11C160.93 122.11 158.17 123.24 156.13 125.27L140.94 140.46C122.51 158.59 115.9 185.58 123.87 210.18C130.98 231.17 140.97 251.08 153.57 269.31C164.91 286.32 177.91 302.16 192.39 316.59C208.13 332.38 225.56 346.41 244.36 358.4C264.61 371.67 286.85 381.6 310.24 387.84C333.46 393.39 357.89 386.4 374.67 369.41L387.72 356.35C391.96 352.13 391.98 345.27 387.75 341.03C387.75 341.02 387.73 341 387.72 340.99L339.76 293.04C335.54 288.8 328.68 288.78 324.44 293C324.43 293.01 324.41 293.03 324.4 293.04L296.93 320.6C289 328.48 276.56 329.55 267.4 323.16C251.54 312.07 236.69 299.58 223.03 285.87C210.78 273.66 199.51 260.51 189.32 246.53C182.61 237.36 183.63 224.66 191.71 216.66L219.87 188.5C224.11 184.28 224.13 177.42 219.9 173.18C219.9 173.17 219.88 173.15 219.87 173.14L171.91 125.19C169.86 123.19 167.1 122.08 164.23 122.11L163.81 122.11Z" />
</svg>