<svg version="1.2" baseProfile="tiny-ps" xmlns="http://www.w3.org/2000/svg" viewBox="0 0 512 512" width="30" height="30">
	<title>free-icon-telegram-356028-svg</title>
	<style>
		tspan { white-space:pre }
		.shp0 { fill: #59aae7 } 
		.shp1 { fill: #3d9ae3 } 
		.shp2 { fill: #fcfcfc } 
		.shp3 { fill: #d8d7da } 
		.shp4 { fill: #000000 } 
	</style>
	<path id="Layer" class="shp0" d="M256 503.92C118.9 503.92 8.08 393.1 8.08 256C8.08 118.9 118.9 8.08 256 8.08C393.1 8.08 503.92 118.9 503.92 256C503.92 393.1 393.1 503.92 256 503.92Z" />
	<path id="Layer" class="shp1" d="M256 8.08C245.04 8.08 234.25 8.8 223.66 10.18C345.3 26.03 439.24 130.04 439.24 256C439.24 381.96 345.3 485.97 223.66 501.82C234.25 503.2 245.04 503.92 256 503.92C392.92 503.92 503.92 392.92 503.92 256C503.92 119.08 392.92 8.08 256 8.08Z" />
	<path id="Layer" class="shp2" d="M167.57 309.4L87.62 269.42C85.43 268.33 85.41 265.21 87.58 264.08L391.34 106.96C393.57 105.81 396.14 107.75 395.65 110.21L343.35 371.7C342.98 373.57 340.98 374.62 339.24 373.87L268.16 343.41C267.31 343.05 266.34 343.09 265.53 343.55L173.68 394.57C171.68 395.68 169.23 394.24 169.23 391.95L169.23 312.08C169.23 310.94 168.59 309.91 167.57 309.4Z" />
	<path id="Layer" class="shp3" d="M202.07 336.35L201.57 256.52C201.57 256.01 201.83 255.54 202.27 255.27L331.94 176.06C333.41 175.16 334.95 177.1 333.73 178.33L235.05 277.71C234.94 277.82 234.85 277.94 234.78 278.08L217.9 311.84L204.82 337.01C204.12 338.36 202.08 337.87 202.07 336.35Z" />
	<path id="Layer" fill-rule="evenodd" class="shp4" d="M512 256C512 324.38 485.37 388.67 437.02 437.02C388.67 485.37 324.38 512 256 512C187.62 512 123.33 485.37 74.98 437.02C26.63 388.67 0 324.38 0 256C0 187.62 26.63 123.33 74.98 74.98C123.33 26.63 187.62 0 256 0C324.38 0 388.67 26.63 437.02 74.98C485.37 123.33 512 187.62 512 256ZM495.83 256C495.83 123.76 388.24 16.17 256 16.17C123.76 16.17 16.17 123.76 16.17 256C16.17 388.24 123.76 495.83 256 495.83C388.24 495.83 495.83 388.24 495.83 256Z" />
	<path id="Layer" class="shp4" d="M352.42 282.4L336.26 363.21L269.96 334.8C267.67 333.82 265.04 333.95 262.85 335.16L177.85 382.39L177.85 309.89C177.85 306.83 176.12 304.03 173.38 302.66L101.37 266.66L384.9 120L360.29 243.03C359.29 248.03 363.12 252.7 368.22 252.7L368.22 252.7C372.07 252.7 375.39 249.97 376.15 246.2L404.05 106.68C404.66 103.63 403.47 100.51 400.99 98.64C398.51 96.77 395.17 96.49 392.41 97.91L79.82 259.6C77.12 261 75.43 263.79 75.45 266.83C75.47 269.88 77.2 272.65 79.92 274.01L161.68 314.89L161.68 395.9C161.68 398.02 162.41 400.11 163.86 401.65C165.48 403.36 167.62 404.21 169.77 404.21C171.12 404.21 172.47 403.87 173.7 403.19L267.24 351.22L338.84 381.91C340.36 382.56 342.05 382.83 343.68 382.53C347.03 381.9 349.52 379.33 350.16 376.16L368.28 285.58C369.28 280.58 365.45 275.91 360.35 275.91L360.35 275.91C356.49 275.91 353.18 278.63 352.42 282.4Z" />
	<path id="Layer" fill-rule="evenodd" class="shp4" d="M194.02 342.23L194.02 256C194.02 253.19 195.48 250.59 197.87 249.12L337.99 162.88C341.49 160.73 346.03 161.54 348.57 164.76C351.12 167.97 350.85 172.59 347.95 175.48L241.09 282.35L209.34 345.85C207.94 348.63 205.11 350.32 202.11 350.32C201.49 350.32 200.87 350.25 200.25 350.1C196.6 349.24 194.02 345.98 194.02 342.23ZM210.19 307.99L227.21 273.94C227.6 273.17 228.11 272.45 228.72 271.84L287.82 212.74L210.19 260.52L210.19 307.99Z" />
</svg>